<?xml version="1.0" standalone="no"?>
<!DOCTYPE svg PUBLIC "-//W3C//DTD SVG 20010904//EN"
 "http://www.w3.org/TR/2001/REC-SVG-20010904/DTD/svg10.dtd">
<svg version="1.0" xmlns="http://www.w3.org/2000/svg"
 width="16.000000pt" height="16.000000pt" viewBox="0 0 16.000000 16.000000"
 preserveAspectRatio="xMidYMid meet">
<metadata>
Created by potrace 1.11, written by Peter Selinger 2001-2013
</metadata>
<g transform="translate(0.000000,16.000000) scale(0.002500,-0.002500)"
fill="#000000" stroke="none">
<path d="M3001 6089 c-24 -5 -65 -11 -90 -14 -38 -4 -104 -17 -201 -40 -204
-47 -498 -166 -695 -280 -216 -125 -440 -311 -549 -455 -22 -30 -44 -57 -47
-60 -15 -13 -79 -133 -103 -193 -54 -135 -60 -211 -31 -412 4 -24 13 -103 21
-165 2 -25 7 -61 9 -80 3 -19 7 -57 11 -85 3 -27 7 -61 9 -75 2 -14 7 -46 10
-72 3 -27 7 -69 10 -95 3 -27 8 -59 10 -73 2 -14 7 -50 9 -80 3 -30 8 -71 11
-90 3 -19 7 -55 10 -80 3 -25 7 -62 10 -82 11 -81 15 -115 20 -159 3 -25 7
-55 10 -67 2 -13 -11 -42 -36 -77 -21 -31 -39 -60 -39 -65 0 -6 -4 -10 -8 -10
-4 0 -16 -15 -27 -32 -10 -18 -21 -35 -24 -38 -3 -3 -30 -40 -58 -82 l-53 -77
86 -118 c47 -65 94 -129 104 -143 10 -14 82 -113 160 -220 77 -107 146 -202
153 -210 9 -11 118 -162 142 -198 2 -2 14 -5 29 -7 14 -3 38 -7 54 -10 15 -2
38 -7 52 -10 34 -6 70 -13 175 -31 50 -9 93 -19 97 -23 7 -6 15 -42 32 -144 3
-15 7 -35 10 -45 3 -9 7 -35 11 -57 3 -22 8 -47 11 -57 4 -14 117 -79 505
-295 l57 -31 329 0 c357 0 336 -3 448 62 33 19 71 41 85 48 14 7 41 22 60 34
19 11 76 43 125 69 144 78 178 99 181 115 3 21 35 191 40 215 3 11 6 32 9 47
5 41 11 45 61 53 25 3 56 9 67 11 12 3 82 15 155 29 74 13 135 25 136 27 12
17 83 115 89 123 4 6 31 42 58 80 28 39 59 81 69 95 10 14 77 106 149 205 72
99 139 191 148 204 10 13 44 60 75 104 l57 80 -62 91 c-34 50 -64 93 -67 96
-3 3 -29 40 -59 83 -55 82 -57 88 -47 172 3 28 9 70 12 95 3 25 7 59 9 75 3
27 29 226 40 315 2 19 7 62 10 95 4 33 8 67 10 75 2 8 7 44 10 80 4 36 9 73
11 83 2 10 6 46 9 80 4 34 9 76 11 92 3 17 7 50 10 74 4 42 6 58 21 166 8 58
7 138 -1 178 -3 15 -8 38 -11 51 -35 167 -204 408 -405 576 -164 137 -441 301
-640 380 -30 12 -66 27 -80 33 -14 5 -31 11 -38 13 -7 1 -45 14 -85 28 -88 30
-227 67 -312 81 -37 6 -82 14 -115 21 -46 9 -394 11 -439 3z m-746 -2453 c179
-35 421 -129 544 -210 138 -92 164 -148 136 -296 -21 -115 -148 -274 -275
-345 -28 -15 -112 -57 -120 -60 -3 -1 -42 -13 -88 -28 -45 -15 -95 -29 -110
-32 -15 -3 -38 -7 -52 -10 -14 -4 -49 -8 -78 -10 -30 -2 -55 -5 -58 -7 -2 -2
-37 -3 -79 -2 -79 3 -114 18 -162 73 -37 42 -90 166 -98 231 -2 14 -6 41 -9
60 -16 97 -24 337 -13 380 25 100 59 159 116 199 30 21 141 65 141 55 0 -3 6
-1 14 3 18 10 138 9 191 -1z m2091 0 c131 -24 215 -95 249 -211 33 -114 20
-373 -26 -544 -34 -121 -80 -190 -152 -228 -70 -36 -320 -10 -495 51 -71 25
-143 56 -152 65 -3 4 -23 15 -44 26 -22 11 -72 50 -111 87 -108 101 -170 242
-160 365 6 81 90 159 256 240 138 67 342 135 469 156 29 4 123 0 166 -7z
m-1096 -948 c45 -82 59 -106 116 -208 18 -30 43 -75 57 -100 13 -25 43 -77 66
-117 22 -40 41 -76 41 -80 -1 -13 -138 -108 -151 -105 -6 1 -49 25 -94 53
l-83 50 -39 -21 c-21 -12 -62 -37 -92 -55 l-55 -34 -50 36 c-28 20 -61 43 -73
52 -12 9 -23 19 -23 23 0 4 31 63 69 130 71 126 80 142 191 341 36 64 67 117
70 117 3 0 25 -37 50 -82z"/>
<path d="M457 3674 c-1 -1 -20 -4 -42 -8 -22 -3 -51 -8 -65 -11 -14 -3 -36 -8
-49 -11 -46 -9 -147 -61 -185 -95 -22 -19 -47 -51 -56 -71 -31 -69 -12 -175
45 -255 81 -112 105 -185 101 -301 -3 -92 -25 -146 -85 -216 -83 -96 -114
-168 -115 -264 l-1 -57 155 -1 c160 -2 472 -12 525 -18 17 -2 64 -7 105 -11
41 -4 78 -9 81 -11 4 -2 24 -6 45 -9 22 -4 48 -9 59 -12 11 -3 29 -7 40 -9 43
-5 267 -75 400 -124 180 -67 180 -67 170 -49 -5 8 -79 110 -164 227 -86 117
-160 220 -166 230 -5 9 -12 19 -15 22 -9 9 -85 111 -156 210 -77 109 -79 110
-119 130 -193 95 -305 233 -370 455 -26 91 -29 102 -46 198 -6 31 -14 57 -18
58 -14 2 -72 5 -74 3z"/>
<path d="M5866 3671 c-2 -3 -9 -31 -15 -61 -16 -84 -18 -95 -41 -177 -25 -93
-78 -223 -91 -223 -5 0 -9 -7 -9 -14 0 -21 -127 -149 -180 -182 -25 -15 -64
-38 -88 -50 -49 -25 -31 -2 -367 -464 -142 -195 -262 -360 -267 -367 -5 -6 42
8 104 31 62 24 158 57 213 75 55 17 114 36 132 42 70 22 282 65 363 74 36 4
73 9 83 11 31 6 325 15 516 16 l183 2 -6 58 c-11 116 -34 168 -117 264 -64 74
-83 124 -83 219 -1 131 17 184 99 298 41 57 55 105 57 187 2 53 -2 64 -29 97
-52 65 -168 130 -263 147 -109 20 -188 27 -194 17z"/>
<path d="M2314 1609 c3 -13 19 -74 36 -135 l32 -111 69 -51 c38 -29 71 -52 74
-52 3 0 5 55 5 123 0 106 -2 124 -17 133 -10 6 -40 23 -68 39 -27 15 -69 39
-93 52 l-43 25 5 -23z"/>
<path d="M4010 1584 c-41 -24 -90 -51 -107 -60 l-33 -16 0 -129 0 -129 73 56
c78 61 83 70 132 264 2 8 7 25 11 38 3 12 5 22 3 21 -2 0 -38 -21 -79 -45z"/>
<path d="M2015 1566 c-33 -17 -61 -34 -63 -38 -2 -5 -9 -8 -15 -8 -6 0 -29 -9
-51 -19 -141 -68 -437 -165 -566 -186 -49 -8 -81 -14 -110 -20 -32 -7 -129
-14 -247 -20 -75 -4 -102 -9 -143 -31 -91 -48 -155 -143 -162 -244 -3 -34 -1
-36 42 -48 149 -44 256 -106 337 -198 55 -61 90 -125 148 -268 42 -104 73
-148 122 -171 72 -34 196 -3 274 68 20 18 87 98 151 177 132 167 239 271 359
352 84 56 256 148 277 148 29 0 17 22 -30 56 -29 21 -58 43 -64 49 -6 5 -26
21 -46 34 -40 28 -42 32 -98 236 -23 83 -45 153 -48 156 -4 4 -34 -7 -67 -25z"/>
<path d="M4304 1562 c-9 -43 -11 -51 -14 -54 -1 -2 -3 -10 -5 -18 -23 -91 -76
-265 -83 -269 -13 -8 -51 -37 -128 -95 -57 -44 -72 -66 -42 -66 21 0 275 -136
298 -160 3 -3 23 -18 45 -35 79 -58 180 -163 292 -303 63 -79 130 -158 149
-176 52 -49 118 -78 188 -83 108 -8 151 32 221 207 21 52 51 117 67 143 15 26
28 50 28 54 0 14 130 132 173 158 61 35 170 80 218 89 36 6 37 8 32 44 -9 75
-37 135 -88 188 -64 66 -112 84 -239 90 -179 8 -301 27 -466 69 -99 26 -328
104 -387 133 -97 47 -133 64 -140 64 -4 0 -20 9 -34 19 -15 10 -38 23 -52 28
-23 9 -26 7 -33 -27z"/>
<path d="M2605 1337 l0 -122 105 -57 c58 -31 108 -57 111 -58 4 0 7 56 7 124
l1 123 -107 54 c-59 29 -109 54 -112 55 -3 1 -5 -52 -5 -119z"/>
<path d="M3678 1402 l-108 -54 1 -124 c1 -68 3 -124 6 -124 7 0 198 102 208
111 10 10 15 239 5 243 -3 1 -53 -22 -112 -52z"/>
<path d="M2954 1342 l-51 -3 0 -129 0 -130 131 1 131 1 -1 126 0 127 -80 5
c-43 3 -102 4 -130 2z"/>
<path d="M3335 1340 l-100 -5 1 -110 c1 -60 2 -118 3 -127 1 -15 16 -17 130
-17 l129 1 -1 130 -2 131 -30 1 c-16 1 -75 -1 -130 -4z"/>
</g>
</svg>
